<?xml version="1.0" standalone="no"?><svg xmlns="http://www.w3.org/2000/svg" viewBox="0 0 1440 320"><path fill="#E1341E" fill-opacity="1" d="M0,224L14.1,224C28.2,224,56,224,85,234.7C112.9,245,141,267,169,240C197.6,213,226,139,254,122.7C282.4,107,311,149,339,181.3C367.1,213,395,235,424,234.7C451.8,235,480,213,508,170.7C536.5,128,565,64,593,74.7C621.2,85,649,171,678,192C705.9,213,734,171,762,144C790.6,117,819,107,847,96C875.3,85,904,75,932,58.7C960,43,988,21,1016,32C1044.7,43,1073,85,1101,117.3C1129.4,149,1158,171,1186,176C1214.1,181,1242,171,1271,138.7C1298.8,107,1327,53,1355,53.3C1383.5,53,1412,107,1426,133.3L1440,160L1440,320L1425.9,320C1411.8,320,1384,320,1355,320C1327.1,320,1299,320,1271,320C1242.4,320,1214,320,1186,320C1157.6,320,1129,320,1101,320C1072.9,320,1045,320,1016,320C988.2,320,960,320,932,320C903.5,320,875,320,847,320C818.8,320,791,320,762,320C734.1,320,706,320,678,320C649.4,320,621,320,593,320C564.7,320,536,320,508,320C480,320,452,320,424,320C395.3,320,367,320,339,320C310.6,320,282,320,254,320C225.9,320,198,320,169,320C141.2,320,113,320,85,320C56.5,320,28,320,14,320L0,320Z"></path></svg>