<?xml version="1.0" standalone="no"?><svg xmlns="http://www.w3.org/2000/svg" viewBox="0 0 1440 320"><path fill="#1780a1" fill-opacity="1" d="M0,320L14.1,272C28.2,224,56,128,85,117.3C112.9,107,141,181,169,218.7C197.6,256,226,256,254,234.7C282.4,213,311,171,339,160C367.1,149,395,171,424,154.7C451.8,139,480,85,508,90.7C536.5,96,565,160,593,197.3C621.2,235,649,245,678,229.3C705.9,213,734,171,762,160C790.6,149,819,171,847,160C875.3,149,904,107,932,96C960,85,988,107,1016,106.7C1044.7,107,1073,85,1101,85.3C1129.4,85,1158,107,1186,133.3C1214.1,160,1242,192,1271,181.3C1298.8,171,1327,117,1355,85.3C1383.5,53,1412,43,1426,37.3L1440,32L1440,0L1425.9,0C1411.8,0,1384,0,1355,0C1327.1,0,1299,0,1271,0C1242.4,0,1214,0,1186,0C1157.6,0,1129,0,1101,0C1072.9,0,1045,0,1016,0C988.2,0,960,0,932,0C903.5,0,875,0,847,0C818.8,0,791,0,762,0C734.1,0,706,0,678,0C649.4,0,621,0,593,0C564.7,0,536,0,508,0C480,0,452,0,424,0C395.3,0,367,0,339,0C310.6,0,282,0,254,0C225.9,0,198,0,169,0C141.2,0,113,0,85,0C56.5,0,28,0,14,0L0,0Z"></path></svg>